<?xml version="1.0" encoding="utf-8"?>
<!-- Generator: Adobe Illustrator 25.3.0, SVG Export Plug-In . SVG Version: 6.00 Build 0)  -->
<svg version="1.1" id="Capa_1" xmlns="http://www.w3.org/2000/svg" xmlns:xlink="http://www.w3.org/1999/xlink" x="0px" y="0px"
	 viewBox="0 0 283.5 88" style="enable-background:new 0 0 283.5 88;" xml:space="preserve">
<style type="text/css">
	.st0{fill:#FCFCFC;}
	.st1{fill:#2A9BD7;}
	.st2{fill:#309BD7;}
	.st3{fill:#FFFFFF;}
	.st4{fill:#2D99D5;}
	.st5{fill:#2898D4;}
	.st6{fill:#F59A0F;}
	.st7{fill:#2C9ED9;}
	.st8{fill:#F4991C;}
</style>
<g>
	<path class="st0" d="M274.6,28.3c0.1-1.5,1.6-2.8,3.1-2.7c1.2,0.1,2.1,1.1,2,2.3c-0.1,1.5-1.6,2.8-3.1,2.8
		C275.4,30.6,274.6,29.7,274.6,28.3z"/>
	<path class="st1" d="M52.2,10.6c0.6-0.4-0.1-0.7-0.1-1.2c1.4,0.4,1.7,1.8,2.8,2.3c-0.3,0.8-1.1,0.1-1.4,0.5
		C53,11.7,52.6,11.1,52.2,10.6z"/>
	<path class="st2" d="M15.1,58.2c0-3,0-6.1,0-9.1c0-1.1,0.2-1.5,1.4-1.5c4.7,0.1,9.4-0.1,14.1,0.1s8.8,2,10.8,6.7
		c2.9,6.6-0.7,13.1-7.9,14.1c-5.2,0.7-10.4,0.2-15.6,0.3c-2.9,0.1-2.9,0-2.9-2.9C15.1,63.2,15.1,60.7,15.1,58.2L15.1,58.2z"/>
	<path class="st3" d="M135.4,68.7c-4.7-0.2-8.8-1.1-12.2-4.3c-0.5-0.4-0.9-0.9-1.3-1.4c-0.7-1.1-1.9-2.5-1.3-3.4
		c0.6-0.9,2.4-1.1,3.6-1.5c0.3-0.1,0.5,0,0.6,0.3c1.5,3.8,4.8,5.1,8.5,5.6c4.5,0.7,8.7-0.2,12.4-3.1c0.8-0.6,1.5-1.4,2-2.3
		c1.7-3.2,1-6-2-8c-2.8-1.8-6-2.2-9.2-2.9c-1.9-0.4-3.8-0.9-5.6-1.6c-7.4-2.8-9.5-10.1-4.5-16.3c3.5-4.4,8.2-6.4,13.7-6.8
		c4.4-0.3,8.6,0.5,12.3,3.1c1.8,1.3,3.1,2.9,3.9,5c0.2,0.6,0.3,1.2-0.6,1.3c-0.3,0-0.6,0.2-0.9,0.3c-1.5,0.7-2.5,1.1-3.6-1
		c-1.3-2.6-4.1-3.5-6.9-4c-4.2-0.8-8.2-0.2-11.8,2.1c-1.7,1.1-3,2.4-3.7,4.4c-1.2,3.6,0,6.2,3.4,7.6c2.5,1,5.2,1.4,7.8,2
		c2.5,0.5,4.9,1.3,7.2,2.4c7,3.6,7.2,9.9,3.6,15.2c-2.9,4.2-7.2,6.2-12.2,7C137.4,68.6,136.2,68.6,135.4,68.7z"/>
	<path class="st2" d="M15.3,26.3c0-2.9,0-5.8,0-8.8c0-0.6,0-1.2,0.9-1.1c4.8,0.2,9.6-0.3,14.4,0.3c5.6,0.7,9.1,4.1,9.2,9.1
		c0.1,5.2-3.3,9.1-8.8,10.1c-3.5,0.6-7,0.2-10.5,0.3c-1.2,0-2.5-0.1-3.7,0c-1.4,0.1-1.6-0.4-1.6-1.7C15.3,31.9,15.2,29.1,15.3,26.3
		C15.2,26.3,15.3,26.3,15.3,26.3z"/>
	<path class="st3" d="M164,36.2c-0.8,5.8-1.6,11.5-2.4,17.1c-0.7,4.7,0.5,8,3.8,9.8c3.4,1.8,7.9,1.1,11.1-1.8
		c2.3-2.1,3.4-4.6,3.8-7.6c0.7-5.5,1.5-11,2.2-16.5c0.1-0.9,0.5-1,1.2-1c3.5-0.1,3.4-0.1,3,3.1c-1.3,9.1-2.6,18.2-3.8,27.3
		c-0.1,1-0.5,1.2-1.4,1.2c-3.1,0-3.1,0.1-2.9-3c0-0.3,0-0.5,0-0.9c-0.7,0.1-0.9,0.7-1.3,1c-3.8,3.2-8.1,4.6-12.9,3.2
		c-5.1-1.5-8.3-6.3-7.6-11.6c0.8-6.4,1.8-12.8,2.6-19.3c0.1-0.9,0.4-1.2,1.3-1.1C161.8,36.3,162.9,36.2,164,36.2z"/>
	<path class="st3" d="M261.3,67.8c-0.5,0-0.8,0-1.1,0c-1,0.1-1.3-0.2-1.2-1.2c1.7-11.9,3.4-23.8,5.1-35.8c0.4-3.2,0.9-6.3,1.3-9.5
		c0.1-0.9,0.5-1,1.2-1c3.5-0.1,3.4-0.1,2.9,3.3c-1.3,8.9-2.5,17.9-3.8,26.8c-0.8,5.5-1.5,11-2.3,16.5
		C263.3,68.6,262,67.4,261.3,67.8z"/>
	<path class="st3" d="M276,36.2c0.4,0,0.7,0,0.9,0c1.2-0.2,1.3,0.3,1.2,1.4c-1.4,9.6-2.8,19.1-4,28.7c-0.2,1.2-0.6,1.5-1.7,1.5
		c-2.9-0.1-3,0-2.6-2.8c1.3-9.3,2.6-18.6,3.9-27.9C273.9,35.4,275.3,36.6,276,36.2z"/>
	<path class="st4" d="M59,76.6c-2.2,0-4.3,0-6.5,0c2.7-2.6,5-5.5,6.5-9.1C59,70.5,59,73.5,59,76.6z"/>
	<path class="st5" d="M117.4,76.6c-0.4,0-0.8-0.1-1.2-0.1c0.8-1.8,1-3.6,1-5.6c-0.1-13.6,0-27.2,0-40.8c0-1-0.5-2,0-3
		c0.4,0.6,0.3,1.4,0.3,2.1c0,15.5,0,31,0,46.5C117.5,76,117.4,76.3,117.4,76.6z"/>
	<path class="st6" d="M52.5,82.3c0.5-0.4,1-0.2,1.6-0.2c12,0,23.9,0,35.9,0c0.5,0,1.1-0.2,1.6,0.3C78.5,82.3,65.5,82.3,52.5,82.3z"
		/>
	<path class="st2" d="M69.7,39.4c0-1.3-0.1-2.7-0.1-4c0-1-0.2-1.4-1.3-1.4c-2.7,0.1-5.3,0.1-8,0c-1.1,0-1.3,0.4-1.3,1.4
		c0,6.1,0,12.1,0,18.3c-0.6-0.5-0.7-1.2-1-1.7c-3-6-7.7-9.6-14.4-10.5c-0.4-0.1-1.2,0.2-1.2-0.5c-0.1-0.7,0.7-0.6,1.2-0.8
		c6.4-1.9,11-5.7,12.6-12.4c1.3-5.5,0.3-10.7-2.8-15.5c0.8-0.6,0.1-1-0.2-1.5c-0.4-0.6-0.7-0.2-1.1-0.2c-3-3-6.6-5.1-10.7-6.2
		c0-0.4,0.3-0.3,0.5-0.3c17.2,0,34.5,0,51.7,0.1c4.3,0,8.4,1.3,12,3.8c-0.3,0.3-0.7,0.5-1.1,0.7c-0.1,0.1-0.3,0.1-0.4,0.1
		c0.1,0,0.3,0,0.4-0.1c0.4-0.2,0.8-0.4,1.1-0.7c6.1,3.7,9.7,9.1,11.3,16c0.2,1,0.5,2.1,0.4,3.2c0.3,5.3,0.1,10.6,0.1,15.9
		c0,10,0,20,0,30c0,1.3-0.1,2.6-1,3.6c-2.2,0.7-4.5,0.5-6.7,0.2c-0.8-0.5-0.5-1.1-0.2-1.7c2.2-4,2.8-8.2,2.7-12.7
		c-0.1-6.3,0-12.6,0-18.8c-0.1-8.7-5.5-16.5-13.7-19.5c-8.9-3.3-18.4,0.6-23.3,6.4c-1.8,2.1-2.8,4.2-3.3,5.7c-0.8,3-1.3,4.9-1.3,5.4
		c0,0.1,0,0.5-0.3,0.7c-0.1,0.1-0.2,0.1-0.4,0.1C69.7,41.4,69.7,40.4,69.7,39.4z M64,29.5c3.8,0.1,6.8-2.8,6.9-6.5s-2.9-6.8-6.6-6.8
		c-3.6-0.1-6.6,2.9-6.7,6.5C57.6,26.5,60.4,29.5,64,29.5z"/>
	<path class="st2" d="M69.8,46.3c2.4,9.5,9.3,16.7,17.8,18.3c6.6,1.3,12.1-1.2,14.3-2.3c1,6.4-2.2,11.6-8,13
		c-0.5,0.1-1.1,0.2-1.6,0.2c-0.7,0-0.9,0.4-1,1c-0.6,0-1.1,0-1.7,0c-0.7-0.4-1.5-0.3-2.2-0.3c-5.3,0-10.6,0-15.9,0
		c-0.6,0-1.3,0.1-1.6-0.6c0-0.1,0-0.2,0-0.3c0.2-0.2,0.2-0.4,0-0.6c0-19.4-0.1-29.1-0.1-29.1C69.8,45.5,69.8,45.7,69.8,46.3z"/>
	<path class="st7" d="M69.8,75.6c0.5,0,0.8,0.4,1.3,0.4c5.5-0.1,10.9-0.1,16.4-0.1c0.8,0,1.5,0,2.1,0.7c-6.6,0.2-13.2,0.2-19.8,0
		C69.8,76.2,69.8,75.9,69.8,75.6z"/>
	<path class="st3" d="M192.1,62.2c-0.8,5.8-1.6,11.2-2.4,16.6c-0.1,0.4-0.1,0.9-0.2,1.3c-0.3,1.2,0.2,3-0.7,3.4
		c-1.1,0.6-2.7,0.1-4.2,0.1c1.3-8.1,2.7-16.2,4-24.3c0.7-4.3,1-8.6,2.4-12.7c3.6-10.4,16.6-14.7,25.1-8.3c4.7,3.5,6.5,9.5,4.9,15.9
		c-2,7.6-9.1,13.8-16.9,14.5C198.8,69.2,194.7,67.4,192.1,62.2z M203.9,40c-6.9,1.5-11,9.3-10,16.1c0.7,4.7,3.3,7.6,7.3,8.1
		c6.9,1,14.2-4.2,15.6-11c1.5-7.4-3-13.4-10.2-13.6C205.7,39.8,204.7,39.8,203.9,40z"/>
	<path class="st3" d="M228.5,62.4c-0.8,5.7-1.6,11.1-2.3,16.6c-0.2,1.3-0.5,2.6-0.6,3.8c-0.1,0.9-0.4,1-1.2,1
		c-3.4,0.1-3.4,0.1-2.8-3.3c1.5-9.5,3-19.1,4.6-28.6c0.9-5.6,2.9-10.5,8-13.7c6.2-3.9,14.5-3.5,19.3,1c4.5,4.2,5.4,9.4,3.9,15.2
		c-2.3,8.9-11.4,15.3-20.4,14.3c-3.3-0.3-5.7-2-7.5-4.8C229.2,63.6,228.9,63.1,228.5,62.4z M252.9,54.4c1.7-5.4-0.1-10.6-4.5-13.2
		c-4.4-2.6-10.3-1.7-14.1,2.3c-3.1,3.3-4.5,7.4-4.1,11.9c0.4,5.6,4,9,9.2,9C245.2,64.5,251.1,60.2,252.9,54.4z"/>
	<path class="st7" d="M69.8,74.6c0.3,0,0.6,0.1,0.6,0.4c0,0.4-0.4,0.2-0.6,0.3C69.8,75,69.8,74.8,69.8,74.6z"/>
	<path class="st8" d="M109.3,76.6c2.3,0,4.6,0,6.9,0c0.4,0,0.8,0.1,1.2,0.1c0.3,1.7,0,3.3,0.1,5c0.1,0.9-0.5,0.8-1.1,0.8
		c-8.3,0-16.7,0-25-0.1c-0.4-0.2-0.7-0.1-1.1-0.1c-12.3,0-24.6,0-36.9,0c-0.3,0-0.7,0-1,0.1c-11,0-22.1,0-33.1,0
		c-1,0-0.9-0.3-0.5-0.9l0,0c3.7-2.6,8-3.3,12.3-3.9c7-1,14.1-0.7,21.2-0.9c2.2,0,4.3,0,6.5,0c3.5,0,6.9,0,10.4,0
		C82.7,76.6,96,76.6,109.3,76.6z"/>
	<path class="st2" d="M101.9,43.7c0,5.9-4.8,10.6-10.6,10.6c-5.9,0-10.7-4.8-10.8-10.7c-0.1-5.9,4.8-10.7,10.7-10.7
		C97.4,33,102,37.6,101.9,43.7z"/>
</g>
</svg>
