<?xml version="1.0" encoding="utf-8"?>
<!-- Generator: Adobe Illustrator 25.3.0, SVG Export Plug-In . SVG Version: 6.00 Build 0)  -->
<svg version="1.1" id="Capa_1" xmlns="http://www.w3.org/2000/svg" xmlns:xlink="http://www.w3.org/1999/xlink" x="0px" y="0px"
	 viewBox="0 0 283.5 88" style="enable-background:new 0 0 283.5 88;" xml:space="preserve">
<style type="text/css">
	.st0{fill:#0B0E1B;}
	.st1{fill:#2A9BD7;}
	.st2{fill:#309BD7;}
	.st3{fill:#2D99D5;}
	.st4{fill:#2898D4;}
	.st5{fill:#F59A0F;}
	.st6{fill:#2C9ED9;}
	.st7{fill:#F4991C;}
</style>
<g>
	<path class="st0" d="M272.2,28.3c0.1-1.5,1.6-2.8,3.1-2.7c1.2,0.1,2.1,1.1,2,2.3c-0.1,1.5-1.6,2.8-3.1,2.8
		C272.9,30.6,272.1,29.7,272.2,28.3z"/>
	<path class="st1" d="M49.7,10.6c0.6-0.4-0.1-0.7-0.1-1.2c1.4,0.4,1.7,1.8,2.8,2.3c-0.3,0.8-1.1,0.1-1.4,0.5
		C50.6,11.6,50.1,11.1,49.7,10.6z"/>
	<path class="st2" d="M12.7,58.1c0-3,0-6.1,0-9.1c0-1.1,0.2-1.5,1.4-1.5c4.7,0.1,9.4-0.1,14.1,0.1s8.8,2,10.8,6.7
		c2.9,6.6-0.7,13.1-7.9,14.1c-5.2,0.7-10.4,0.2-15.6,0.3c-2.9,0.1-2.9,0-2.9-2.9C12.7,63.2,12.7,60.7,12.7,58.1L12.7,58.1z"/>
	<path class="st0" d="M132.9,68.7c-4.7-0.2-8.8-1.1-12.2-4.3c-0.5-0.4-0.9-0.9-1.3-1.4c-0.7-1.1-1.9-2.5-1.3-3.4s2.4-1.1,3.6-1.5
		c0.3-0.1,0.5,0,0.6,0.3c1.5,3.8,4.8,5.1,8.5,5.6c4.5,0.7,8.7-0.2,12.4-3.1c0.8-0.6,1.5-1.4,2-2.3c1.7-3.2,1-6-2-8
		c-2.8-1.8-6-2.2-9.2-2.9c-1.9-0.4-3.8-0.9-5.6-1.6c-7.4-2.8-9.5-10.1-4.5-16.3c3.5-4.4,8.2-6.4,13.7-6.8c4.4-0.3,8.6,0.5,12.3,3.1
		c1.8,1.3,3.1,2.9,3.9,5c0.2,0.6,0.3,1.2-0.6,1.3c-0.3,0-0.6,0.2-0.9,0.3c-1.5,0.7-2.5,1.1-3.6-1c-1.3-2.6-4.1-3.5-6.9-4
		c-4.2-0.8-8.2-0.2-11.8,2.1c-1.7,1.1-3,2.4-3.7,4.4c-1.2,3.6,0,6.2,3.4,7.6c2.5,1,5.2,1.4,7.8,2c2.5,0.5,4.9,1.3,7.2,2.4
		c7,3.6,7.2,9.9,3.6,15.2c-2.9,4.2-7.2,6.2-12.2,7C134.9,68.6,133.8,68.6,132.9,68.7z"/>
	<path class="st2" d="M12.8,26.3c0-2.9,0-5.8,0-8.8c0-0.6,0-1.2,0.9-1.1c4.8,0.2,9.6-0.3,14.4,0.3c5.6,0.7,9.1,4.1,9.2,9.1
		c0.1,5.2-3.3,9.1-8.8,10.1c-3.5,0.6-7,0.2-10.5,0.3c-1.2,0-2.5-0.1-3.7,0c-1.4,0.1-1.6-0.4-1.6-1.7C12.8,31.8,12.7,29.1,12.8,26.3
		L12.8,26.3z"/>
	<path class="st0" d="M161.6,36.2c-0.8,5.8-1.6,11.5-2.4,17.1c-0.7,4.7,0.5,8,3.8,9.8c3.4,1.8,7.9,1.1,11.1-1.8
		c2.3-2.1,3.4-4.6,3.8-7.6c0.7-5.5,1.5-11,2.2-16.5c0.1-0.9,0.5-1,1.2-1c3.5-0.1,3.4-0.1,3,3.1c-1.3,9.1-2.6,18.2-3.8,27.3
		c-0.1,1-0.5,1.2-1.4,1.2c-3.1,0-3.1,0.1-2.9-3c0-0.3,0-0.5,0-0.9c-0.7,0.1-0.9,0.7-1.3,1c-3.8,3.2-8.1,4.6-12.9,3.2
		c-5.1-1.5-8.3-6.3-7.6-11.6c0.8-6.4,1.8-12.8,2.6-19.3c0.1-0.9,0.4-1.2,1.3-1.1C159.3,36.3,160.4,36.2,161.6,36.2z"/>
	<path class="st0" d="M258.9,67.8c-0.5,0-0.8,0-1.1,0c-1,0.1-1.3-0.2-1.2-1.2c1.7-11.9,3.4-23.8,5.1-35.8c0.4-3.2,0.9-6.3,1.3-9.5
		c0.1-0.9,0.5-1,1.2-1c3.5-0.1,3.4-0.1,2.9,3.3c-1.3,8.9-2.5,17.9-3.8,26.8c-0.8,5.5-1.5,11-2.3,16.5
		C260.9,68.6,259.5,67.4,258.9,67.8z"/>
	<path class="st0" d="M273.5,36.2c0.4,0,0.7,0,0.9,0c1.2-0.2,1.3,0.3,1.2,1.4c-1.4,9.6-2.8,19.1-4,28.7c-0.2,1.2-0.6,1.5-1.7,1.5
		c-2.9-0.1-3,0-2.6-2.8c1.3-9.3,2.6-18.6,3.9-27.9C271.5,35.4,272.9,36.6,273.5,36.2z"/>
	<path class="st3" d="M56.6,76.6c-2.2,0-4.3,0-6.5,0c2.7-2.6,5-5.5,6.5-9.1C56.6,70.5,56.6,73.5,56.6,76.6z"/>
	<path class="st4" d="M114.9,76.6c-0.4,0-0.8-0.1-1.2-0.1c0.8-1.8,1-3.6,1-5.6c-0.1-13.6,0-27.2,0-40.8c0-1-0.5-2,0-3
		c0.4,0.6,0.3,1.4,0.3,2.1c0,15.5,0,31,0,46.5C115.1,75.9,115,76.3,114.9,76.6z"/>
	<path class="st5" d="M50.1,82.3c0.5-0.4,1-0.2,1.6-0.2c12,0,23.9,0,35.9,0c0.5,0,1.1-0.2,1.6,0.3C76.1,82.3,63.1,82.3,50.1,82.3z"
		/>
	<path class="st2" d="M67.2,39.3c0-1.3-0.1-2.7-0.1-4c0-1-0.2-1.4-1.3-1.4c-2.7,0.1-5.3,0.1-8,0c-1.1,0-1.3,0.4-1.3,1.4
		c0,6.1,0,12.1,0,18.3c-0.6-0.5-0.7-1.2-1-1.7c-3-6-7.7-9.6-14.4-10.5c-0.4-0.1-1.2,0.2-1.2-0.5c-0.1-0.7,0.7-0.6,1.2-0.8
		c6.4-1.9,11-5.7,12.6-12.4C55,22.2,54,17,50.9,12.2c0.8-0.6,0.1-1-0.2-1.5c-0.4-0.6-0.7-0.2-1.1-0.2c-3-3-6.6-5.1-10.7-6.2
		c0-0.4,0.3-0.3,0.5-0.3c17.2,0,34.5,0,51.7,0.1c4.3,0,8.4,1.3,12,3.8c-0.3,0.3-0.7,0.5-1.1,0.7c-0.1,0.1-0.3,0.1-0.4,0.1
		c0.1,0,0.3,0,0.4-0.1c0.4-0.2,0.8-0.4,1.1-0.7c6.1,3.7,9.7,9.1,11.3,16c0.2,1,0.5,2.1,0.4,3.2c0.3,5.3,0.1,10.6,0.1,15.9
		c0,10,0,20,0,30c0,1.3-0.1,2.6-1,3.6c-2.2,0.7-4.5,0.5-6.7,0.2c-0.8-0.5-0.5-1.1-0.2-1.7c2.2-4,2.8-8.2,2.7-12.7
		c-0.1-6.3,0-12.6,0-18.8c-0.1-8.7-5.5-16.5-13.7-19.5c-8.9-3.3-18.4,0.6-23.3,6.4c-1.8,2.1-2.8,4.2-3.3,5.7c-0.8,3-1.3,4.9-1.3,5.4
		c0,0.1,0,0.5-0.3,0.7c-0.1,0.1-0.2,0.1-0.4,0.1C67.3,41.4,67.3,40.4,67.2,39.3z M61.6,29.5c3.8,0.1,6.8-2.8,6.9-6.5
		c0.1-3.7-2.9-6.8-6.6-6.8c-3.6-0.1-6.6,2.9-6.7,6.5C55.2,26.5,57.9,29.4,61.6,29.5z"/>
	<path class="st2" d="M67.3,46.3c2.4,9.5,9.3,16.7,17.8,18.3c6.6,1.3,12.1-1.2,14.3-2.3c1,6.4-2.2,11.6-8,13
		c-0.5,0.1-1.1,0.2-1.6,0.2c-0.7,0-0.9,0.4-1,1c-0.6,0-1.1,0-1.7,0c-0.7-0.4-1.5-0.3-2.2-0.3c-5.3,0-10.6,0-15.9,0
		c-0.6,0-1.3,0.1-1.6-0.6c0-0.1,0-0.2,0-0.3c0.2-0.2,0.2-0.4,0-0.6c0-19.4-0.1-29.1-0.1-29.1C67.3,45.4,67.3,45.7,67.3,46.3z"/>
	<path class="st6" d="M67.4,75.5c0.5,0,0.8,0.4,1.3,0.4c5.5-0.1,10.9-0.1,16.4-0.1c0.8,0,1.5,0,2.1,0.7c-6.6,0.2-13.2,0.2-19.8,0
		C67.3,76.2,67.3,75.9,67.4,75.5z"/>
	<path class="st0" d="M189.7,62.1c-0.8,5.8-1.6,11.2-2.4,16.6c-0.1,0.4-0.1,0.9-0.2,1.3c-0.3,1.2,0.2,3-0.7,3.4
		c-1.1,0.6-2.7,0.1-4.2,0.1c1.3-8.1,2.7-16.2,4-24.3c0.7-4.3,1-8.6,2.4-12.7c3.6-10.4,16.6-14.7,25.1-8.3c4.7,3.5,6.5,9.5,4.9,15.9
		c-2,7.6-9.1,13.8-16.9,14.5C196.4,69.2,192.3,67.4,189.7,62.1z M201.4,40c-6.9,1.5-11,9.3-10,16.1c0.7,4.7,3.3,7.6,7.3,8.1
		c6.9,1,14.2-4.2,15.6-11c1.5-7.4-3-13.4-10.2-13.6C203.2,39.7,202.3,39.8,201.4,40z"/>
	<path class="st0" d="M226.1,62.4c-0.8,5.7-1.6,11.1-2.3,16.6c-0.2,1.3-0.5,2.6-0.6,3.8c-0.1,0.9-0.4,1-1.2,1
		c-3.4,0.1-3.4,0.1-2.8-3.3c1.5-9.5,3-19.1,4.6-28.6c0.9-5.6,2.9-10.5,8-13.7c6.2-3.9,14.5-3.5,19.3,1c4.5,4.2,5.4,9.4,3.9,15.2
		c-2.3,8.9-11.4,15.3-20.4,14.3c-3.3-0.3-5.7-2-7.5-4.8C226.7,63.5,226.5,63.1,226.1,62.4z M250.4,54.4c1.7-5.4-0.1-10.6-4.5-13.2
		s-10.3-1.7-14.1,2.3c-3.1,3.3-4.5,7.4-4.1,11.9c0.4,5.6,4,9,9.2,9C242.8,64.5,248.6,60.1,250.4,54.4z"/>
	<path class="st6" d="M67.4,74.6c0.3,0,0.6,0.1,0.6,0.4c0,0.4-0.4,0.2-0.6,0.3C67.4,75,67.4,74.8,67.4,74.6z"/>
	<path class="st7" d="M106.9,76.5c2.3,0,4.6,0,6.9,0c0.4,0,0.8,0.1,1.2,0.1c0.3,1.7,0,3.3,0.1,5c0.1,0.9-0.5,0.8-1.1,0.8
		c-8.3,0-16.7,0-25-0.1c-0.4-0.2-0.7-0.1-1.1-0.1c-12.3,0-24.6,0-36.9,0c-0.3,0-0.7,0-1,0.1c-11,0-22.1,0-33.1,0
		c-1,0-0.9-0.3-0.5-0.9l0,0c3.7-2.6,8-3.3,12.3-3.9c7-1,14.1-0.7,21.2-0.9c2.2,0,4.3,0,6.5,0c3.5,0,6.9,0,10.4,0
		C80.3,76.5,93.6,76.5,106.9,76.5z"/>
	<path class="st2" d="M99.5,43.7c0,5.9-4.8,10.6-10.6,10.6c-5.9,0-10.7-4.8-10.8-10.7c-0.1-5.9,4.8-10.7,10.7-10.7
		C95,33,99.5,37.5,99.5,43.7z"/>
</g>
</svg>
